<?xml version="1.0" encoding="utf-8"?><svg width="204" height="178" viewBox="0 0 204 178" xmlns="http://www.w3.org/2000/svg" xmlns:xlink="http://www.w3.org/1999/xlink"><svg width="18" height="14" fill="none" viewBox="-4 -4 18 14" id="ico_atcmp_arr" y="164" xmlns="http://www.w3.org/2000/svg"><path d="M8.793.5a.5.5 0 01.353.854L5.354 5.146a.5.5 0 01-.708 0L.854 1.354A.5.5 0 011.207.5h7.586z" fill="#77777A"/></svg><svg width="32" height="32" fill="none" viewBox="-4 -4 32 32" id="ico_header_search" xmlns="http://www.w3.org/2000/svg"><path fill-rule="evenodd" clip-rule="evenodd" d="M14.09 18.954a1.5 1.5 0 11-3 0 1.5 1.5 0 013 0z" fill="#03C75A"/><path d="M22 22l-5.35-5.35A8.582 8.582 0 109 19.019" stroke="#03C75A" stroke-width="2.25" stroke-linecap="round" stroke-linejoin="round"/></svg><svg width="28" height="20" fill="none" viewBox="-4 -4 28 20" id="ico_keyboard" y="32" xmlns="http://www.w3.org/2000/svg"><path fill-rule="evenodd" clip-rule="evenodd" d="M1 0a1 1 0 00-1 1v10a1 1 0 001 1h18a1 1 0 001-1V1a1 1 0 00-1-1H1zm2.076 2.5h1.539V4H3.076V2.5zm3.076 0h1.539V4H6.152V2.5zm4.617 0H9.23V4h1.539V2.5zm1.538 0h1.538V4h-1.538V2.5zm4.616 0h-1.538V4h1.538V2.5zM4.615 5h1.539v1.5H4.615V5zM9.23 5H7.692v1.5H9.23V5zm1.538 0h1.538v1.5h-1.538V5zm4.616 0h-1.538v1.5h1.538V5zM4.615 8h11.282v1.5H4.615V8z" fill="#C5C5C7"/></svg><svg width="28" height="20" fill="none" viewBox="-4 -4 28 20" id="ico_keyboard_active" x="28" y="32" xmlns="http://www.w3.org/2000/svg"><path fill-rule="evenodd" clip-rule="evenodd" d="M1 0a1 1 0 00-1 1v10a1 1 0 001 1h18a1 1 0 001-1V1a1 1 0 00-1-1H1zm2.076 2.5h1.539V4H3.076V2.5zm3.076 0h1.539V4H6.152V2.5zm4.617 0H9.23V4h1.539V2.5zm1.538 0h1.538V4h-1.538V2.5zm4.616 0h-1.538V4h1.538V2.5zM4.615 5h1.539v1.5H4.615V5zM9.23 5H7.692v1.5H9.23V5zm1.538 0h1.538v1.5h-1.538V5zm4.616 0h-1.538v1.5h1.538V5zM4.615 8h11.282v1.5H4.615V8z" fill="#C5C5C7"/><path fill-rule="evenodd" clip-rule="evenodd" d="M1 0a1 1 0 00-1 1v10a1 1 0 001 1h18a1 1 0 001-1V1a1 1 0 00-1-1H1zm2.076 2.5h1.539V4H3.076V2.5zm3.076 0h1.539V4H6.152V2.5zm4.617 0H9.23V4h1.539V2.5zm1.538 0h1.538V4h-1.538V2.5zm4.616 0h-1.538V4h1.538V2.5zM4.615 5h1.539v1.5H4.615V5zM9.23 5H7.692v1.5H9.23V5zm1.538 0h1.538v1.5h-1.538V5zm4.616 0h-1.538v1.5h1.538V5zM4.615 8h11.282v1.5H4.615V8z" fill="#000" fill-opacity=".05"/></svg><svg width="23" height="20" fill="none" viewBox="-4 -4 23 20" id="ico_lnb_share" x="86" y="56" xmlns="http://www.w3.org/2000/svg"><path clip-rule="evenodd" d="M14 6L8.154 1v3.182l-1.842.016C3.12 4.198 1.278 7.45 1 10.602c0 0 .922-2.728 4.913-2.784h2.241V11L14 6z" stroke="#C5C5C7" stroke-linejoin="round"/></svg><svg width="32" height="30" fill="none" viewBox="-4 -4 32 30" id="ico_logo" x="32" xmlns="http://www.w3.org/2000/svg"><path fill-rule="evenodd" clip-rule="evenodd" d="M15.817 22L8.074 10.612V22H0V0h8.187l7.743 11.386V0H24v22h-8.183z" fill="url(#afpaint0_linear_3876_26143)"/><defs><linearGradient id="afpaint0_linear_3876_26143" x1="-12" y1="11" x2="9.917" y2="34.909" gradientUnits="userSpaceOnUse"><stop stop-color="#03CF5D"/><stop offset="0" stop-color="#03CF5D"/><stop offset="1" stop-color="#03C75A"/></linearGradient></defs></svg><svg width="22" height="28" fill="none" viewBox="-4 -4 22 28" id="ico_nav_academic" x="64" xmlns="http://www.w3.org/2000/svg"><path fill-rule="evenodd" clip-rule="evenodd" d="M0 6.32c0-.856.67-1.55 1.496-1.55h5.83c.157 0 .31.062.426.173l3.92 3.766a.658.658 0 01.202.476v7.26c0 .857-.67 1.55-1.497 1.55h-8.88C.67 17.996 0 17.303 0 16.446V6.32zm1.496-.25a.246.246 0 00-.241.25v10.126c0 .138.108.25.241.25h8.881a.246.246 0 00.242-.25v-6.61H8.194c-.826 0-1.496-.695-1.496-1.55V6.07H1.496zm6.457.839l1.693 1.626H8.194a.246.246 0 01-.241-.25V6.91z" fill="#77777A"/><path fill-rule="evenodd" clip-rule="evenodd" d="M2.317 3.55c0-.856.67-1.55 1.496-1.55h8.69C13.33 2 14 2.694 14 3.55v9.299c0 .856-.67 1.55-1.496 1.55h-1.252v-1.3h1.252a.246.246 0 00.241-.25V3.55a.246.246 0 00-.241-.25h-8.69a.246.246 0 00-.242.25v1.001H2.317V3.55z" fill="#77777A"/></svg><svg width="22" height="28" fill="none" viewBox="-4 -4 22 28" id="ico_nav_academic_on" y="52" xmlns="http://www.w3.org/2000/svg"><path fill-rule="evenodd" clip-rule="evenodd" d="M0 6.32c0-.856.67-1.55 1.496-1.55h5.83c.157 0 .31.062.426.173l3.92 3.766a.658.658 0 01.202.476v7.26c0 .857-.67 1.55-1.497 1.55h-8.88C.67 17.996 0 17.303 0 16.446V6.32zm1.496-.25a.246.246 0 00-.241.25v10.126c0 .138.108.25.241.25h8.881a.246.246 0 00.242-.25v-6.61H8.194c-.826 0-1.496-.695-1.496-1.55V6.07H1.496zm6.457.839l1.693 1.626H8.194a.246.246 0 01-.241-.25V6.91z" fill="#fff"/><path fill-rule="evenodd" clip-rule="evenodd" d="M2.317 3.55c0-.856.67-1.55 1.496-1.55h8.69C13.33 2 14 2.694 14 3.55v9.299c0 .856-.67 1.55-1.496 1.55H11.25v-1.3h1.253a.246.246 0 00.241-.25V3.55a.246.246 0 00-.241-.25h-8.69a.246.246 0 00-.241.25v1.001H2.317V3.55z" fill="#fff"/></svg><svg width="22" height="24" fill="none" viewBox="-4 -4 22 24" id="ico_nav_academic_on2" x="180" y="140" xmlns="http://www.w3.org/2000/svg"><path fill-rule="evenodd" clip-rule="evenodd" d="M0 4.32c0-.856.67-1.55 1.496-1.55h5.83c.157 0 .31.062.426.173l3.92 3.766a.658.658 0 01.202.476v7.26c0 .857-.67 1.55-1.497 1.55h-8.88C.67 15.996 0 15.303 0 14.446V4.32zm1.496-.25a.246.246 0 00-.241.25v10.126c0 .138.108.25.241.25h8.881a.246.246 0 00.242-.25v-6.61H8.194c-.826 0-1.496-.695-1.496-1.55V4.07H1.496zm6.457.839l1.693 1.626H8.194a.246.246 0 01-.241-.25V4.91z" fill="#03AA5A"/><path fill-rule="evenodd" clip-rule="evenodd" d="M2.316 1.55c0-.856.67-1.55 1.497-1.55h8.69C13.33 0 14 .694 14 1.55v9.299c0 .856-.67 1.55-1.497 1.55h-1.252v-1.3h1.252a.246.246 0 00.242-.25V1.55a.246.246 0 00-.242-.25h-8.69a.246.246 0 00-.242.25v1.001H2.316V1.55z" fill="#03AA5A"/></svg><svg width="19" height="28" fill="none" viewBox="-4 -4 19 28" id="ico_nav_add" x="22" y="52" xmlns="http://www.w3.org/2000/svg"><path fill-rule="evenodd" clip-rule="evenodd" d="M6 4.5H5v5H0v1h5v5h1v-5h5v-1H6v-5z" fill="#B6B6B9"/></svg><svg width="22" height="28" fill="none" viewBox="-4 -4 22 28" id="ico_nav_all" x="41" y="52" xmlns="http://www.w3.org/2000/svg"><path fill-rule="evenodd" clip-rule="evenodd" d="M9.493 3v7.493L4.303 3H0v14h4.507V9.507L9.697 17H14V3H9.493z" fill="#77777A"/></svg><svg width="22" height="28" fill="none" viewBox="-4 -4 22 28" id="ico_nav_all_on" x="63" y="52" xmlns="http://www.w3.org/2000/svg"><path fill-rule="evenodd" clip-rule="evenodd" d="M9.493 3v7.493L4.303 3H0v14h4.507V9.507L9.697 17H14V3H9.493z" fill="#03AA5A"/></svg><svg width="16" height="20" fill="none" viewBox="-4 -4 16 20" id="ico_nav_arr" x="110" y="84" xmlns="http://www.w3.org/2000/svg"><path d="M1 11l5-5-5-5" stroke="#77777A" stroke-width="1.5"/></svg><svg width="16" height="20" fill="none" viewBox="-4 -4 16 20" id="ico_nav_arr_on" x="64" y="28" xmlns="http://www.w3.org/2000/svg"><path d="M1 11l5-5-5-5" stroke="#222225" stroke-width="1.5"/></svg><svg width="24" height="28" fill="none" viewBox="-4 -4 24 28" id="ico_nav_audio" x="86" xmlns="http://www.w3.org/2000/svg"><path fill-rule="evenodd" clip-rule="evenodd" d="M7.478 2.5A7.478 7.478 0 000 9.978v5.6a1.915 1.915 0 001.914 1.916h1.231A1.915 1.915 0 005.06 15.58v-3.102a1.915 1.915 0 00-1.915-1.914H1.344V9.98a6.135 6.135 0 016.134-6.136h.048a6.135 6.135 0 016.136 6.135v.579h-1.804a1.914 1.914 0 00-1.914 1.914v3.115a1.915 1.915 0 001.914 1.914h1.232a1.915 1.915 0 001.914-1.914V9.978A7.478 7.478 0 007.526 2.5h-.048zm4.38 9.4l1.803-.001v3.687a.572.572 0 01-.571.572h-1.231a.572.572 0 01-.572-.572v-3.115a.572.572 0 01.572-.572zM1.345 15.577v-3.672h1.802a.572.572 0 01.572.572v3.1a.572.572 0 01-.572.572H1.914a.572.572 0 01-.57-.572z" fill="#77777A"/></svg><svg width="24" height="28" fill="none" viewBox="-4 -4 24 28" id="ico_nav_audio_on2" x="86" y="28" xmlns="http://www.w3.org/2000/svg"><path fill-rule="evenodd" clip-rule="evenodd" d="M7.478 2.5A7.478 7.478 0 000 9.978v5.6a1.915 1.915 0 001.914 1.916h1.231A1.915 1.915 0 005.06 15.58v-3.102a1.915 1.915 0 00-1.915-1.914H1.344V9.98a6.135 6.135 0 016.134-6.136h.048a6.135 6.135 0 016.136 6.135v.579h-1.804a1.914 1.914 0 00-1.914 1.914v3.115a1.915 1.915 0 001.914 1.914h1.232a1.915 1.915 0 001.914-1.914V9.978A7.478 7.478 0 007.526 2.5h-.048zm4.38 9.4l1.803-.001v3.687a.572.572 0 01-.571.572h-1.231a.572.572 0 01-.572-.572v-3.115a.572.572 0 01.572-.572zM1.345 15.577v-3.672h1.802a.572.572 0 01.572.572v3.1a.572.572 0 01-.572.572H1.914a.572.572 0 01-.57-.572z" fill="#03AA5A"/></svg><svg width="24" height="28" fill="none" viewBox="-4 -4 24 28" id="ico_nav_book" y="80" xmlns="http://www.w3.org/2000/svg"><path fill-rule="evenodd" clip-rule="evenodd" d="M1.57 15.877l.076-.045.003-.002a4.898 4.898 0 012.702-.817 4.103 4.103 0 012.792 1.1h.002c.323.286.57.387.859.387.281 0 .535-.101.852-.387a4.14 4.14 0 012.8-1.1 4.874 4.874 0 012.695.817l.003.002.038.022.04.024c.23.137.441.262.69.262.22 0 .44-.058.606-.2.168-.144.272-.364.272-.667V5.889a.606.606 0 00-.098-.374C15.25 4.414 13.608 3.5 11.627 3.5c-1.531 0-2.872.576-3.623 1.411C7.252 4.076 5.904 3.5 4.38 3.5 2.391 3.5.75 4.415.097 5.516A.657.657 0 000 5.89v9.384c0 .303.104.524.273.667a.938.938 0 00.995.104c.097-.046.197-.105.302-.167zM11.627 3.58c1.961 0 3.573.906 4.208 1.978-.635-1.072-2.247-1.978-4.208-1.978-1.555 0-2.903.602-3.623 1.452-.72-.85-2.076-1.452-3.624-1.452-1.968 0-3.58.906-4.215 1.978a.58.58 0 00-.086.332v9.384V5.89a.58.58 0 01.086-.332C.8 4.485 2.412 3.579 4.38 3.579c1.511 0 2.838.573 3.571 1.392l.053.06.052-.06c.732-.819 2.053-1.392 3.57-1.392zM7.426 6.09v8.714c-.728-.56-1.862-.982-3.046-.982-1.24 0-2.396.339-3.152.864a3.57 3.57 0 01.079-.053c.756-.495 1.875-.811 3.073-.811 1.142 0 2.238.392 2.967.922l.079.06V6.089zM4.38 13.742c-1.188 0-2.303.307-3.073.796V6.073c.565-.77 1.782-1.302 3.073-1.302 1.328 0 2.473.539 2.967 1.34v8.535c-.743-.523-1.833-.904-2.967-.904zm4.194 1.06l.08-.059c.729-.53 1.824-.922 2.973-.922 1.192 0 2.31.316 3.066.81l.08.054V6.048v8.637c-.757-.525-1.912-.864-3.146-.864-1.191 0-2.325.422-3.053.982zm3.053-1.06c-1.141 0-2.231.38-2.974.904V6.111c.494-.801 1.646-1.34 2.974-1.34 1.284 0 2.501.531 3.066 1.302v8.465c-.77-.49-1.885-.796-3.066-.796z" fill="#77777A"/></svg><svg width="24" height="28" fill="none" viewBox="-4 -4 24 28" id="ico_nav_book_on2" x="24" y="80" xmlns="http://www.w3.org/2000/svg"><path fill-rule="evenodd" clip-rule="evenodd" d="M1.57 15.877l.076-.045.003-.002a4.898 4.898 0 012.702-.817 4.103 4.103 0 012.792 1.1h.002c.323.286.57.387.859.387.281 0 .535-.101.852-.387a4.14 4.14 0 012.8-1.1 4.874 4.874 0 012.695.817l.003.002.038.022.04.024c.23.137.441.262.69.262.22 0 .44-.058.606-.2.168-.144.272-.364.272-.667V5.889a.606.606 0 00-.098-.374C15.25 4.414 13.608 3.5 11.627 3.5c-1.531 0-2.872.576-3.623 1.411C7.252 4.076 5.904 3.5 4.38 3.5 2.391 3.5.75 4.415.097 5.516A.657.657 0 000 5.89v9.384c0 .303.104.524.273.667a.938.938 0 00.995.104c.097-.046.197-.105.302-.167zM11.627 3.58c1.961 0 3.573.906 4.208 1.978-.635-1.072-2.247-1.978-4.208-1.978-1.555 0-2.903.602-3.623 1.452-.72-.85-2.076-1.452-3.624-1.452-1.968 0-3.58.906-4.215 1.978a.58.58 0 00-.086.332v9.384V5.89a.58.58 0 01.086-.332C.8 4.485 2.412 3.579 4.38 3.579c1.511 0 2.838.573 3.571 1.392l.053.06.052-.06c.732-.819 2.053-1.392 3.57-1.392zM7.426 6.09v8.714c-.728-.56-1.862-.982-3.046-.982-1.24 0-2.396.339-3.152.864a3.57 3.57 0 01.079-.053c.756-.495 1.875-.811 3.073-.811 1.142 0 2.238.392 2.967.922l.079.06V6.089zM4.38 13.742c-1.188 0-2.303.307-3.073.796V6.073c.565-.77 1.782-1.302 3.073-1.302 1.328 0 2.473.539 2.967 1.34v8.535c-.743-.523-1.833-.904-2.967-.904zm4.194 1.06l.08-.059c.729-.53 1.824-.922 2.973-.922 1.192 0 2.31.316 3.066.81l.08.054V6.048v8.637c-.757-.525-1.912-.864-3.146-.864-1.191 0-2.325.422-3.053.982zm3.053-1.06c-1.141 0-2.231.38-2.974.904V6.111c.494-.801 1.646-1.34 2.974-1.34 1.284 0 2.501.531 3.066 1.302v8.465c-.77-.49-1.885-.796-3.066-.796z" fill="#03AA5A"/></svg><svg width="22" height="28" fill="none" viewBox="-4 -4 22 28" id="ico_nav_dic" x="48" y="80" xmlns="http://www.w3.org/2000/svg"><path fill-rule="evenodd" clip-rule="evenodd" d="M2.5 8.674V3.5h1.248v4.415l.74-.794c.224-.238.69-.323.977.016l.726.778V3.5H7.44v5.174c0 .201-.045.45-.213.66a.884.884 0 01-.7.327.903.903 0 01-.576-.208c-.103-.082-.213-.198-.315-.305l-.022-.024-.004-.004-.64-.685-.642.69-.023.023a3.198 3.198 0 01-.315.305.903.903 0 01-.575.208.884.884 0 01-.7-.328 1.041 1.041 0 01-.214-.66zm3.691.007V8.68zm.533-.208zm-2.976.208V8.68z" fill="#77777A"/><path fill-rule="evenodd" clip-rule="evenodd" d="M1.575 4.498a.988.988 0 01.71-.308h10.467v8.204H2.362a2.305 2.305 0 00-1.105.261V5.303c0-.31.12-.599.318-.805zm.06 9.354a1.19 1.19 0 00-.378.716v.13a.57.57 0 01-.007.083 1.188 1.188 0 00.246.647c.089.113.196.204.314.269.109.06.225.098.343.114h10.599v-2.227H2.342a1.029 1.029 0 00-.707.268zM14 12.996V3.595c0-.329-.28-.595-.624-.595H2.286c-.621 0-1.206.255-1.628.692a2.317 2.317 0 00-.65 1.61v9.203a2.33 2.33 0 00.491 1.64 2.28 2.28 0 001.551.852.656.656 0 00.066.003h11.26c.345 0 .624-.266.624-.595v-3.409z" fill="#77777A"/></svg><svg width="22" height="28" fill="none" viewBox="-4 -4 22 28" id="ico_nav_dic_on" x="70" y="80" xmlns="http://www.w3.org/2000/svg"><path fill-rule="evenodd" clip-rule="evenodd" d="M2.5 8.674V3.5h1.248v4.415l.74-.794c.224-.238.69-.323.977.016l.726.778V3.5H7.44v5.174c0 .201-.045.45-.213.66a.884.884 0 01-.7.327.903.903 0 01-.576-.208c-.103-.082-.213-.198-.315-.305l-.022-.024-.004-.004-.64-.685-.642.69-.023.023a3.198 3.198 0 01-.315.305.903.903 0 01-.575.208.884.884 0 01-.7-.328 1.041 1.041 0 01-.214-.66zm3.691.007V8.68v.002zm.533-.208zm-2.976.208V8.68v.002z" fill="#fff"/><path fill-rule="evenodd" clip-rule="evenodd" d="M1.575 4.498a.988.988 0 01.71-.308h10.467v8.204H2.362a2.305 2.305 0 00-1.105.261V5.303c0-.31.12-.599.318-.805zm.06 9.354a1.19 1.19 0 00-.378.716v.13a.57.57 0 01-.007.083 1.188 1.188 0 00.246.647c.089.113.196.204.314.269.109.06.225.098.343.114h10.599v-2.227H2.342a1.029 1.029 0 00-.707.268zM14 12.996V3.595c0-.329-.28-.595-.624-.595H2.286c-.621 0-1.206.255-1.628.692a2.317 2.317 0 00-.65 1.61v9.203a2.33 2.33 0 00.491 1.64 2.28 2.28 0 001.551.852.656.656 0 00.066.003h11.26c.345 0 .624-.266.624-.595v-3.409z" fill="#fff"/></svg><svg width="22" height="28" fill="none" viewBox="-4 -4 22 28" id="ico_nav_dic_on2" x="110" xmlns="http://www.w3.org/2000/svg"><path fill-rule="evenodd" clip-rule="evenodd" d="M2.5 8.674V3.5h1.248v4.415l.74-.794c.224-.238.69-.323.977.016l.726.778V3.5H7.44v5.174c0 .201-.045.45-.213.66a.884.884 0 01-.7.327.903.903 0 01-.576-.208c-.103-.082-.213-.198-.315-.305l-.022-.024-.004-.004-.64-.685-.642.69-.023.023a3.198 3.198 0 01-.315.305.903.903 0 01-.575.208.884.884 0 01-.7-.328 1.041 1.041 0 01-.214-.66zm3.691.007V8.68v.002zm.533-.208zm-2.976.208V8.68v.002z" fill="#03AA5A"/><path fill-rule="evenodd" clip-rule="evenodd" d="M1.575 4.498a.988.988 0 01.71-.308h10.467v8.204H2.362a2.305 2.305 0 00-1.105.261V5.303c0-.31.12-.599.318-.805zm.06 9.354a1.19 1.19 0 00-.378.716v.13a.57.57 0 01-.007.083 1.188 1.188 0 00.246.647c.089.113.196.204.314.269.109.06.225.098.343.114h10.599v-2.227H2.342a1.029 1.029 0 00-.707.268zM14 12.996V3.595c0-.329-.28-.595-.624-.595H2.286c-.621 0-1.206.255-1.628.692a2.317 2.317 0 00-.65 1.61v9.203a2.33 2.33 0 00.491 1.64 2.28 2.28 0 001.551.852.656.656 0 00.066.003h11.26c.345 0 .624-.266.624-.595v-3.409z" fill="#03AA5A"/></svg><svg width="22" height="28" fill="none" viewBox="-4 -4 22 28" id="ico_nav_image" x="110" y="28" xmlns="http://www.w3.org/2000/svg"><path fill-rule="evenodd" clip-rule="evenodd" d="M1.556 4.3h10.888a.26.26 0 01.256.256v10.888a.26.26 0 01-.256.256H1.556a.26.26 0 01-.256-.256V4.556a.26.26 0 01.256-.256zM12.444 3H1.556C.7 3 0 3.7 0 4.556v10.888C0 16.3.7 17 1.556 17h10.888C13.3 17 14 16.3 14 15.444V4.556C14 3.7 13.3 3 12.444 3zm-3.839 7.8l-2.25 2.902L4.75 11.76 2.5 14.655h9L8.605 10.8z" fill="#77777A"/></svg><svg width="22" height="28" fill="none" viewBox="-4 -4 22 28" id="ico_nav_image_on" x="110" y="56" xmlns="http://www.w3.org/2000/svg"><path fill-rule="evenodd" clip-rule="evenodd" d="M1.556 4.3h10.888a.26.26 0 01.256.256v10.888a.26.26 0 01-.256.256H1.556a.26.26 0 01-.256-.256V4.556a.26.26 0 01.256-.256zM12.444 3H1.556C.7 3 0 3.7 0 4.556v10.888C0 16.3.7 17 1.556 17h10.888C13.3 17 14 16.3 14 15.444V4.556C14 3.7 13.3 3 12.444 3zm-3.839 7.8l-2.25 2.902L4.75 11.76 2.5 14.655h9L8.605 10.8z" fill="#fff"/></svg><svg width="22" height="28" fill="none" viewBox="-4 -4 22 28" id="ico_nav_image_on2" x="132" xmlns="http://www.w3.org/2000/svg"><path fill-rule="evenodd" clip-rule="evenodd" d="M1.556 4.3h10.888a.26.26 0 01.256.256v10.888a.26.26 0 01-.256.256H1.556a.26.26 0 01-.256-.256V4.556a.26.26 0 01.256-.256zM12.444 3H1.556C.7 3 0 3.7 0 4.556v10.888C0 16.3.7 17 1.556 17h10.888C13.3 17 14 16.3 14 15.444V4.556C14 3.7 13.3 3 12.444 3zm-3.839 7.8l-2.25 2.902L4.75 11.76 2.5 14.655h9L8.605 10.8z" fill="#03AA5A"/></svg><svg width="24" height="28" fill="none" viewBox="-4 -4 24 28" id="ico_nav_inf" y="108" xmlns="http://www.w3.org/2000/svg"><path d="M10.563 6.201c0 1.748-1.39 3.157-3.059 3.157-1.667 0-3.051-1.401-3.059-3.142a3.07 3.07 0 013.06-3.066 3.035 3.035 0 013.058 3.051zm2.333 10.649H2.104c-.676 0-1.055-.1-1.248-.218-.132-.081-.206-.181-.206-.428 0-.796.559-1.925 1.76-2.884 1.176-.94 2.909-1.658 5.094-1.658 2.181 0 3.912.719 5.088 1.658 1.2.959 1.758 2.088 1.758 2.884 0 .247-.074.347-.206.428-.193.117-.572.218-1.248.218z" stroke="#77777A" stroke-width="1.3"/></svg><svg width="24" height="28" fill="none" viewBox="-4 -4 24 28" id="ico_nav_inf_on" x="24" y="108" xmlns="http://www.w3.org/2000/svg"><path d="M10.563 6.201c0 1.748-1.39 3.157-3.059 3.157-1.667 0-3.051-1.401-3.059-3.142a3.07 3.07 0 013.06-3.066 3.035 3.035 0 013.058 3.051zm2.333 10.649H2.104c-.676 0-1.055-.1-1.248-.218-.132-.081-.206-.181-.206-.428 0-.796.559-1.925 1.76-2.884 1.176-.94 2.909-1.658 5.094-1.658 2.181 0 3.912.719 5.088 1.658 1.2.959 1.758 2.088 1.758 2.884 0 .247-.074.347-.206.428-.193.117-.572.218-1.248.218z" stroke="#fff" stroke-width="1.3"/></svg><svg width="24" height="28" fill="none" viewBox="-4 -4 24 28" id="ico_nav_inf_on2" x="48" y="108" xmlns="http://www.w3.org/2000/svg"><path d="M10.563 6.201c0 1.748-1.39 3.157-3.059 3.157-1.667 0-3.051-1.401-3.059-3.142a3.07 3.07 0 013.06-3.066 3.035 3.035 0 013.058 3.051zm2.333 10.649H2.104c-.676 0-1.055-.1-1.248-.218-.132-.081-.206-.181-.206-.428 0-.796.559-1.925 1.76-2.884 1.176-.94 2.909-1.658 5.094-1.658 2.181 0 3.912.719 5.088 1.658 1.2.959 1.758 2.088 1.758 2.884 0 .247-.074.347-.206.428-.193.117-.572.218-1.248.218z" stroke="#03AA5A" stroke-width="1.3"/></svg><svg width="22" height="28" fill="none" viewBox="-4 -4 22 28" id="ico_nav_kin" x="132" y="28" xmlns="http://www.w3.org/2000/svg"><path fill-rule="evenodd" clip-rule="evenodd" d="M10.545 14.464a5.7 5.7 0 11.92-.92L9.04 11.121l-.92.92 2.425 2.423zm.924.924a7 7 0 11.92-.92l1.377 1.38-.919.918-1.378-1.378z" fill="#77777A"/></svg><svg width="22" height="28" fill="none" viewBox="-4 -4 22 28" id="ico_nav_kin_on" x="132" y="56" xmlns="http://www.w3.org/2000/svg"><path fill-rule="evenodd" clip-rule="evenodd" d="M10.545 14.464a5.7 5.7 0 11.92-.92L9.04 11.121l-.92.92 2.425 2.423zm.924.924a7 7 0 11.92-.92l1.377 1.38-.919.918-1.378-1.378z" fill="#fff"/></svg><svg width="22" height="28" fill="none" viewBox="-4 -4 22 28" id="ico_nav_kin_on2" x="72" y="108" xmlns="http://www.w3.org/2000/svg"><path fill-rule="evenodd" clip-rule="evenodd" d="M10.545 14.464a5.7 5.7 0 11.92-.92L9.04 11.121l-.92.92 2.425 2.423zm.924.924a7 7 0 11.92-.92l1.377 1.38-.919.918-1.378-1.378z" fill="#03AA5A"/></svg><svg width="26" height="28" fill="none" viewBox="-4 -4 26 28" id="ico_nav_kindic" x="94" y="108" xmlns="http://www.w3.org/2000/svg"><path fill-rule="evenodd" clip-rule="evenodd" d="M8.69 2.582a.631.631 0 01.62 0l8.35 4.72a.63.63 0 01.34.56v4.872a.631.631 0 01-1.263 0v-3.79l-2.085 1.178v3.79c0 .504-.213.981-.518 1.389-.307.411-.735.79-1.239 1.11-1.007.64-2.38 1.089-3.895 1.089-1.516 0-2.888-.449-3.896-1.09-.503-.32-.931-.698-1.239-1.11-.304-.407-.518-.884-.518-1.388v-3.79L.321 8.412a.631.631 0 010-1.1l8.368-4.73zm.62 10.56l4.08-2.306v3.076c0 .146-.066.364-.267.632-.198.265-.502.545-.905.801-.806.512-1.944.892-3.218.892s-2.412-.38-3.218-.892c-.403-.256-.708-.536-.905-.8-.202-.27-.267-.487-.267-.633v-3.077l4.08 2.306a.631.631 0 00.62 0zm-7.395-5.28L9 11.865l7.085-4.005L9 3.857 1.915 7.86z" fill="#77777A"/></svg><svg width="26" height="28" fill="none" viewBox="-4 -4 26 28" id="ico_nav_kindic_on" x="120" y="108" xmlns="http://www.w3.org/2000/svg"><path fill-rule="evenodd" clip-rule="evenodd" d="M8.69 2.582a.631.631 0 01.62 0l8.35 4.72a.63.63 0 01.34.56v4.872a.631.631 0 01-1.263 0v-3.79l-2.085 1.178v3.79c0 .504-.213.981-.518 1.389-.307.411-.735.79-1.239 1.11-1.007.64-2.38 1.089-3.895 1.089-1.516 0-2.888-.449-3.896-1.09-.503-.32-.931-.698-1.239-1.11-.304-.407-.518-.884-.518-1.388v-3.79L.321 8.412a.631.631 0 010-1.1l8.368-4.73zm.62 10.56l4.08-2.306v3.076c0 .146-.066.364-.267.632-.198.265-.502.545-.905.801-.806.512-1.944.892-3.218.892s-2.412-.38-3.218-.892c-.403-.256-.708-.536-.905-.8-.202-.27-.267-.487-.267-.633v-3.077l4.08 2.306a.631.631 0 00.62 0zm-7.395-5.28L9 11.865l7.085-4.005L9 3.857 1.915 7.86z" fill="#fff"/></svg><svg width="26" height="28" fill="none" viewBox="-4 -4 26 28" id="ico_nav_kindic_on2" x="154" xmlns="http://www.w3.org/2000/svg"><path fill-rule="evenodd" clip-rule="evenodd" d="M8.69 2.582a.631.631 0 01.62 0l8.35 4.72a.63.63 0 01.34.56v4.872a.631.631 0 01-1.263 0v-3.79l-2.085 1.178v3.79c0 .504-.213.981-.518 1.389-.307.411-.735.79-1.239 1.11-1.007.64-2.38 1.089-3.895 1.089-1.516 0-2.888-.449-3.896-1.09-.503-.32-.931-.698-1.239-1.11-.304-.407-.518-.884-.518-1.388v-3.79L.321 8.412a.631.631 0 010-1.1l8.368-4.73zm.62 10.56l4.08-2.306v3.076c0 .146-.066.364-.267.632-.198.265-.502.545-.905.801-.806.512-1.944.892-3.218.892s-2.412-.38-3.218-.892c-.403-.256-.708-.536-.905-.8-.202-.27-.267-.487-.267-.633v-3.077l4.08 2.306a.631.631 0 00.62 0zm-7.395-5.28L9 11.865l7.085-4.005L9 3.857 1.915 7.86z" fill="#03AA5A"/></svg><svg width="22" height="28" fill="none" viewBox="-4 -4 22 28" id="ico_nav_map" x="154" y="28" xmlns="http://www.w3.org/2000/svg"><path fill-rule="evenodd" clip-rule="evenodd" d="M6.5 3.3c2.754 0 5.2 2.052 5.2 5.26 0 .972-.4 2.166-1.397 3.614-.857 1.245-2.115 2.615-3.803 4.11-1.688-1.495-2.946-2.865-3.803-4.11C1.699 10.726 1.3 9.532 1.3 8.56c0-3.208 2.446-5.26 5.2-5.26zM13 8.56c0 2.656-2.17 5.8-6.5 9.44C2.17 14.36 0 11.216 0 8.56 0 4.576 3.087 2 6.5 2 9.912 2 13 4.576 13 8.56zM6.5 6.1a2.404 2.404 0 00-2.4 2.4c0 1.322 1.078 2.4 2.4 2.4 1.322 0 2.4-1.078 2.4-2.4 0-1.322-1.078-2.4-2.4-2.4zM5.4 8.5c0-.604.496-1.1 1.1-1.1.604 0 1.1.496 1.1 1.1 0 .604-.496 1.1-1.1 1.1-.604 0-1.1-.496-1.1-1.1z" fill="#77777A"/></svg><svg width="22" height="28" fill="none" viewBox="-4 -4 22 28" id="ico_nav_map_on2" x="154" y="56" xmlns="http://www.w3.org/2000/svg"><path fill-rule="evenodd" clip-rule="evenodd" d="M6.5 3.3c2.754 0 5.2 2.052 5.2 5.26 0 .972-.4 2.166-1.397 3.614-.857 1.245-2.115 2.615-3.803 4.11-1.688-1.495-2.946-2.865-3.803-4.11C1.699 10.726 1.3 9.532 1.3 8.56c0-3.208 2.446-5.26 5.2-5.26zM13 8.56c0 2.656-2.17 5.8-6.5 9.44C2.17 14.36 0 11.216 0 8.56 0 4.576 3.087 2 6.5 2 9.912 2 13 4.576 13 8.56zM6.5 6.1a2.404 2.404 0 00-2.4 2.4c0 1.322 1.078 2.4 2.4 2.4 1.322 0 2.4-1.078 2.4-2.4 0-1.322-1.078-2.4-2.4-2.4zM5.4 8.5c0-.604.496-1.1 1.1-1.1.604 0 1.1.496 1.1 1.1 0 .604-.496 1.1-1.1 1.1-.604 0-1.1-.496-1.1-1.1z" fill="#03AA5A"/></svg><svg width="26" height="12" fill="none" viewBox="-4 -4 26 12" id="ico_nav_more" x="154" y="112" xmlns="http://www.w3.org/2000/svg"><path fill-rule="evenodd" clip-rule="evenodd" d="M2 0a2 2 0 110 4 2 2 0 010-4zm7 0a2 2 0 110 4 2 2 0 010-4zm9 2a2 2 0 10-4 0 2 2 0 004 0z" fill="#B6B6B9"/></svg><svg width="26" height="12" fill="none" viewBox="-4 -4 26 12" id="ico_nav_more_on" x="154" y="124" xmlns="http://www.w3.org/2000/svg"><path fill-rule="evenodd" clip-rule="evenodd" d="M2 0a2 2 0 110 4 2 2 0 010-4zm7 0a2 2 0 110 4 2 2 0 010-4zm9 2a2 2 0 10-4 0 2 2 0 004 0z" fill="#222225"/></svg><svg width="20" height="28" fill="none" viewBox="-4 -4 20 28" id="ico_nav_music" x="154" y="84" xmlns="http://www.w3.org/2000/svg"><path fill-rule="evenodd" clip-rule="evenodd" d="M6.104 3.152l.024 7.813a3.708 3.708 0 00-2.41-.885A3.714 3.714 0 000 13.79a3.714 3.714 0 003.718 3.71 3.714 3.714 0 003.719-3.655l-.03-9.382 2.52 1.979a.67.67 0 00.925-.1.63.63 0 00-.096-.901L7.322 2.742a.658.658 0 00-.147-.087.65.65 0 00-1.071.497zM3.718 16.2a2.414 2.414 0 002.417-2.41c0-1.329-1.08-2.41-2.417-2.41A2.414 2.414 0 001.3 13.79c0 1.328 1.08 2.41 2.418 2.41z" fill="#77777A"/></svg><svg width="20" height="24" fill="none" viewBox="-4 -4 20 24" id="ico_nav_music_on2" x="132" y="84" xmlns="http://www.w3.org/2000/svg"><path fill-rule="evenodd" clip-rule="evenodd" d="M6.104 1.152l.024 7.813a3.708 3.708 0 00-2.41-.885A3.714 3.714 0 000 11.79a3.714 3.714 0 003.718 3.71 3.714 3.714 0 003.719-3.655l-.03-9.382 2.52 1.979a.67.67 0 00.925-.1.63.63 0 00-.096-.901L7.322.742a.658.658 0 00-.147-.087.65.65 0 00-1.071.497zM3.718 14.2a2.414 2.414 0 002.417-2.41c0-1.329-1.08-2.41-2.417-2.41A2.414 2.414 0 001.3 11.79c0 1.329 1.08 2.41 2.418 2.41z" fill="#03AA5A"/></svg><svg width="22" height="28" fill="none" viewBox="-4 -4 22 28" id="ico_nav_news" y="136" xmlns="http://www.w3.org/2000/svg"><path fill-rule="evenodd" clip-rule="evenodd" d="M1.556 4.3h10.888a.26.26 0 01.256.256v10.888a.26.26 0 01-.256.256H1.556a.26.26 0 01-.256-.256V4.556a.26.26 0 01.256-.256zM12.444 3H1.556C.7 3 0 3.7 0 4.556v10.888C0 16.3.7 17 1.556 17h10.888C13.3 17 14 16.3 14 15.444V4.556C14 3.7 13.3 3 12.444 3zM3.8 7.7h1.4v1.7H3.8V7.7zm-1.3 3V6.4h4v4.3h-4zm9-3H8V6.4h3.5v1.3zm0 3H8V9.4h3.5v1.3zm0 2.9h-9v-1.3h9v1.3z" fill="#77777A"/></svg><svg width="22" height="28" fill="none" viewBox="-4 -4 22 28" id="ico_nav_news_on" x="22" y="136" xmlns="http://www.w3.org/2000/svg"><path fill-rule="evenodd" clip-rule="evenodd" d="M1.556 4.3h10.888a.26.26 0 01.256.256v10.888a.26.26 0 01-.256.256H1.556a.26.26 0 01-.256-.256V4.556a.26.26 0 01.256-.256zM12.444 3H1.556C.7 3 0 3.7 0 4.556v10.888C0 16.3.7 17 1.556 17h10.888C13.3 17 14 16.3 14 15.444V4.556C14 3.7 13.3 3 12.444 3zM3.8 7.7h1.4v1.7H3.8V7.7zm-1.3 3V6.4h4v4.3h-4zm9-3H8V6.4h3.5v1.3zm0 3H8V9.4h3.5v1.3zm0 2.9h-9v-1.3h9v1.3z" fill="#fff"/></svg><svg width="22" height="28" fill="none" viewBox="-4 -4 22 28" id="ico_nav_news_on2" x="44" y="136" xmlns="http://www.w3.org/2000/svg"><path fill-rule="evenodd" clip-rule="evenodd" d="M1.556 4.3h10.888a.26.26 0 01.256.256v10.888a.26.26 0 01-.256.256H1.556a.26.26 0 01-.256-.256V4.556a.26.26 0 01.256-.256zM12.444 3H1.556C.7 3 0 3.7 0 4.556v10.888C0 16.3.7 17 1.556 17h10.888C13.3 17 14 16.3 14 15.444V4.556C14 3.7 13.3 3 12.444 3zM3.8 7.7h1.4v1.7H3.8V7.7zm-1.3 3V6.4h4v4.3h-4zm9-3H8V6.4h3.5v1.3zm0 3H8V9.4h3.5v1.3zm0 2.9h-9v-1.3h9v1.3z" fill="#03AA5A"/></svg><svg width="22" height="28" fill="none" viewBox="-4 -4 22 28" id="ico_nav_option" x="66" y="136" xmlns="http://www.w3.org/2000/svg"><path fill-rule="evenodd" clip-rule="evenodd" d="M4.805 3.735A.877.877 0 015.675 3h2.65c.428 0 .802.3.877.735v.006l.206 1.409a5.3 5.3 0 01.691.393l1.393-.545.019-.006c.346-.107.812-.015 1.048.398l1.33 2.236a.876.876 0 01-.231 1.122l-1.149.87a4.943 4.943 0 01.002.762l1.137.87c.367.27.444.748.234 1.122l-.003.007-1.326 2.23a.887.887 0 01-1.07.392l-.008-.003-1.381-.54a5.32 5.32 0 01-.693.393l-.204 1.397a.872.872 0 01-.871.752H5.674a.89.89 0 01-.872-.712L4.8 16.27l-.207-1.42a5.423 5.423 0 01-.691-.393l-1.393.545-.019.005c-.347.108-.812.016-1.049-.397l-1.33-2.237a.876.876 0 01.231-1.122l1.149-.87a3.811 3.811 0 01.007-.769L.364 8.755A.853.853 0 01.13 7.618v-.001L1.448 5.39A.887.887 0 012.517 5l.008.003 1.384.54c.215-.142.445-.276.69-.392l.205-1.409.001-.006zm1.063.37L5.602 5.93l-.297.118a4.47 4.47 0 00-.995.563l-.245.18-1.756-.686-1.118 1.89L2.692 9.13l-.056.331A3.299 3.299 0 002.58 10c0 .187.013.376.04.538l.058.331-1.501 1.136 1.124 1.89 1.757-.686.245.181c.314.232.638.422.994.562l.297.118.266 1.825h2.271l.266-1.825.297-.118a4.22 4.22 0 00.99-.558l.246-.186 1.76.688 1.125-1.892-1.478-1.13.044-.318c.024-.175.037-.358.037-.556 0-.193-.013-.375-.04-.538l-.058-.331 1.501-1.136-1.124-1.89-1.757.686-.245-.181a4.361 4.361 0 00-.994-.562l-.297-.118-.266-1.825h-2.27zm7.123 3.762zM7 8.135c-1.076 0-1.933.855-1.933 1.865S5.924 11.865 7 11.865 8.933 11.01 8.933 10 8.076 8.135 7 8.135zM3.962 10c0-1.65 1.38-2.97 3.038-2.97s3.038 1.32 3.038 2.97c0 1.65-1.38 2.97-3.038 2.97S3.962 11.65 3.962 10z" fill="#B6B6B9"/></svg><svg width="22" height="28" fill="none" viewBox="-4 -4 22 28" id="ico_nav_option_on" x="88" y="136" xmlns="http://www.w3.org/2000/svg"><path fill-rule="evenodd" clip-rule="evenodd" d="M4.805 3.735A.877.877 0 015.675 3h2.65c.428 0 .802.3.877.735v.006l.206 1.409a5.3 5.3 0 01.691.393l1.393-.545.019-.006c.346-.107.812-.015 1.048.398l1.33 2.236a.876.876 0 01-.231 1.122l-1.149.87a4.943 4.943 0 01.002.762l1.137.87c.367.27.444.748.234 1.122l-.003.007-1.326 2.23a.887.887 0 01-1.07.392l-.008-.003-1.381-.54a5.32 5.32 0 01-.693.393l-.204 1.397a.872.872 0 01-.871.752H5.674a.89.89 0 01-.872-.712L4.8 16.27l-.207-1.42a5.423 5.423 0 01-.691-.393l-1.393.545-.019.005c-.347.108-.812.016-1.049-.397l-1.33-2.237a.876.876 0 01.231-1.122l1.149-.87a3.811 3.811 0 01.007-.769L.364 8.755A.853.853 0 01.13 7.618v-.001L1.448 5.39A.887.887 0 012.517 5l.008.003 1.384.54c.215-.142.445-.276.69-.392l.205-1.409.001-.006zm1.063.37L5.602 5.93l-.297.118a4.47 4.47 0 00-.995.563l-.245.18-1.756-.686-1.118 1.89L2.692 9.13l-.056.331A3.299 3.299 0 002.58 10c0 .187.013.376.04.538l.058.331-1.501 1.136 1.124 1.89 1.757-.686.245.181c.314.232.638.422.994.562l.297.118.266 1.825h2.271l.266-1.825.297-.118a4.22 4.22 0 00.99-.558l.246-.186 1.76.688 1.125-1.892-1.478-1.13.044-.318c.024-.175.037-.358.037-.556 0-.193-.013-.375-.04-.538l-.058-.331 1.501-1.136-1.124-1.89-1.757.686-.245-.181a4.361 4.361 0 00-.994-.562l-.297-.118-.266-1.825h-2.27zm7.123 3.762zM7 8.135c-1.076 0-1.933.855-1.933 1.865S5.924 11.865 7 11.865 8.933 11.01 8.933 10 8.076 8.135 7 8.135zM3.962 10c0-1.65 1.38-2.97 3.038-2.97s3.038 1.32 3.038 2.97c0 1.65-1.38 2.97-3.038 2.97S3.962 11.65 3.962 10z" fill="#77777A"/></svg><svg width="16" height="28" fill="none" viewBox="-4 -4 16 28" id="ico_nav_prev" x="92" y="80" xmlns="http://www.w3.org/2000/svg"><path fill-rule="evenodd" clip-rule="evenodd" d="M5.991 4L7 5.01 2.018 10 7 14.99 5.991 16 0 10l5.991-6z" fill="#77777A"/></svg><svg width="22" height="28" fill="none" viewBox="-4 -4 22 28" id="ico_nav_shop" x="110" y="136" xmlns="http://www.w3.org/2000/svg"><path fill-rule="evenodd" clip-rule="evenodd" d="M9.2 7.5H4.8V6a2.2 2.2 0 114.4 0v1.5zm-5.7 0V6a3.5 3.5 0 117 0v1.5h-7z" fill="#77777A"/><path d="M.812 8.585a.85.85 0 01.845-.935h10.685a.85.85 0 01.846.935l-.7 7a.85.85 0 01-.845.765H2.357a.85.85 0 01-.845-.765l-.7-7z" stroke="#77777A" stroke-width="1.3"/></svg><svg width="22" height="28" fill="none" viewBox="-4 -4 22 28" id="ico_nav_shop_on2" x="132" y="136" xmlns="http://www.w3.org/2000/svg"><path fill-rule="evenodd" clip-rule="evenodd" d="M9.2 7.5H4.8V6a2.2 2.2 0 114.4 0v1.5zm-5.7 0V6a3.5 3.5 0 117 0v1.5h-7z" fill="#03AA5A"/><path d="M1.657 7.65h10.685a.85.85 0 01.846.935l-.7 7a.85.85 0 01-.845.765H2.357a.85.85 0 01-.845-.765l-.7-7a.85.85 0 01.845-.935z" stroke="#03AA5A" stroke-width="1.3"/></svg><svg width="24" height="28" fill="none" viewBox="-4 -4 24 28" id="ico_nav_video" x="154" y="136" xmlns="http://www.w3.org/2000/svg"><path fill-rule="evenodd" clip-rule="evenodd" d="M1.3 10c0-3.698 3.002-6.7 6.7-6.7 3.698 0 6.7 3.002 6.7 6.7 0 3.698-3.002 6.7-6.7 6.7A6.703 6.703 0 011.3 10zM8 2c-4.416 0-8 3.584-8 8s3.584 8 8 8 8-3.584 8-8-3.584-8-8-8zM6.86 12.713a.3.3 0 01-.46-.254V7.54a.3.3 0 01.46-.254l3.933 2.459a.3.3 0 010 .508l-3.934 2.46z" fill="#77777A"/></svg><svg width="24" height="28" fill="none" viewBox="-4 -4 24 28" id="ico_nav_video_on" x="180" xmlns="http://www.w3.org/2000/svg"><path fill-rule="evenodd" clip-rule="evenodd" d="M1.3 10c0-3.698 3.002-6.7 6.7-6.7 3.698 0 6.7 3.002 6.7 6.7 0 3.698-3.002 6.7-6.7 6.7A6.703 6.703 0 011.3 10zM8 2c-4.416 0-8 3.584-8 8s3.584 8 8 8 8-3.584 8-8-3.584-8-8-8zM6.86 12.713a.3.3 0 01-.46-.254V7.54a.3.3 0 01.46-.254l3.933 2.459a.3.3 0 010 .508l-3.934 2.46z" fill="#fff"/></svg><svg width="24" height="28" fill="none" viewBox="-4 -4 24 28" id="ico_nav_video_on2" x="180" y="28" xmlns="http://www.w3.org/2000/svg"><path fill-rule="evenodd" clip-rule="evenodd" d="M1.3 10c0-3.698 3.002-6.7 6.7-6.7 3.698 0 6.7 3.002 6.7 6.7 0 3.698-3.002 6.7-6.7 6.7A6.703 6.703 0 011.3 10zM8 2c-4.416 0-8 3.584-8 8s3.584 8 8 8 8-3.584 8-8-3.584-8-8-8zM6.86 12.713a.3.3 0 01-.46-.254V7.54a.3.3 0 01.46-.254l3.933 2.459a.3.3 0 010 .508l-3.934 2.46z" fill="#03AA5A"/></svg><svg width="22" height="28" fill="none" viewBox="-4 -4 22 28" id="ico_nav_view" x="180" y="56" xmlns="http://www.w3.org/2000/svg"><path d="M1.556 3.65h10.888a.91.91 0 01.906.906v10.888a.91.91 0 01-.906.906H1.556a.91.91 0 01-.906-.906V4.556a.91.91 0 01.906-.906zM3 6.85h8m-8 3h8m-8 3h6" stroke="#77777A" stroke-width="1.3"/></svg><svg width="22" height="28" fill="none" viewBox="-4 -4 22 28" id="ico_nav_view_on" x="180" y="84" xmlns="http://www.w3.org/2000/svg"><path d="M1.556 3.65h10.888a.91.91 0 01.906.906v10.888a.91.91 0 01-.906.906H1.556a.91.91 0 01-.906-.906V4.556a.91.91 0 01.906-.906zM3 6.85h8m-8 3h8m-8 3h6" stroke="#fff" stroke-width="1.3"/></svg><svg width="22" height="28" fill="none" viewBox="-4 -4 22 28" id="ico_nav_view_on2" x="180" y="112" xmlns="http://www.w3.org/2000/svg"><path d="M1.556 3.65h10.888a.91.91 0 01.906.906v10.888a.91.91 0 01-.906.906H1.556a.91.91 0 01-.906-.906V4.556a.91.91 0 01.906-.906zM3 6.85h8m-8 3h8m-8 3h6" stroke="#03AA5A" stroke-width="1.3"/></svg></svg>